<svg width="61" height="66" viewBox="0 0 61 66" fill="none" xmlns="http://www.w3.org/2000/svg">
<path d="M57.1602 10.7891C59.4453 11.8047 60.9688 13.9629 60.9688 16.375C60.9688 44.5586 43.7031 60.1738 32.7852 64.7441C31.2617 65.3789 29.6113 65.3789 28.0879 64.7441C14.5039 59.0312 0.03125 41.6387 0.03125 16.375C0.03125 13.9629 1.42773 11.8047 3.71289 10.7891L28.0879 0.632812C28.8496 0.378906 29.6113 0.251953 30.5 0.251953C31.2617 0.251953 32.0234 0.378906 32.7852 0.632812L57.1602 10.7891ZM30.5 56.873C42.3066 50.9062 52.3359 36.9414 52.7168 17.7715L30.5 8.50391V56.873Z" fill="#03C4A1"/>
</svg>
