<svg width="51" height="51" viewBox="0 0 51 51" fill="none" xmlns="http://www.w3.org/2000/svg">
<path d="M14.8379 15.2148C11.6641 18.3887 6.45898 18.3887 3.28516 15.2148C0.111328 12.041 0.111328 6.83594 3.28516 3.66211C6.45898 0.488281 11.6641 0.488281 14.8379 3.66211C18.0117 6.83594 18.0117 12.041 14.8379 15.2148ZM47.3379 36.1621C50.5117 39.3359 50.5117 44.541 47.3379 47.7148C44.1641 50.8887 38.959 50.8887 35.7852 47.7148C32.6113 44.541 32.6113 39.3359 35.7852 36.1621C38.959 32.9883 44.1641 32.9883 47.3379 36.1621ZM47.084 6.83594C48.6074 8.35938 48.6074 11.0254 47.084 12.5488L12.1719 47.4609C10.6484 48.9844 7.98242 48.9844 6.45898 47.4609L3.53906 44.541C2.01562 43.0176 2.01562 40.3516 3.53906 38.8281L38.4512 3.91602C39.9746 2.39258 42.6406 2.39258 44.1641 3.91602L47.084 6.83594Z" fill="#03C4A1"/>
</svg>
