<svg width="57" height="66" viewBox="0 0 57 66" fill="none" xmlns="http://www.w3.org/2000/svg">
<path d="M55.3516 20.4375H1.52344C0.634766 20.4375 0 19.8027 0 18.9141V14.3438C0 11.043 2.66602 8.25 6.09375 8.25H12.1875V1.64844C12.1875 0.886719 12.8223 0.125 13.7109 0.125H18.7891C19.5508 0.125 20.3125 0.886719 20.3125 1.64844V8.25H36.5625V1.64844C36.5625 0.886719 37.1973 0.125 38.0859 0.125H43.1641C43.9258 0.125 44.6875 0.886719 44.6875 1.64844V8.25H50.7812C54.082 8.25 56.875 11.043 56.875 14.3438V18.9141C56.875 19.8027 56.1133 20.4375 55.3516 20.4375ZM1.52344 24.5H55.3516C56.1133 24.5 56.875 25.2617 56.875 26.0234V59.0312C56.875 62.459 54.082 65.125 50.7812 65.125H6.09375C2.66602 65.125 0 62.459 0 59.0312V26.0234C0 25.2617 0.634766 24.5 1.52344 24.5ZM43.7988 36.6875L40.2441 33.1328C39.6094 32.498 38.5938 32.498 38.0859 33.1328L24.6289 46.4629L18.7891 40.623C18.1543 39.9883 17.1387 39.9883 16.6309 40.623L12.9492 44.1777C12.4414 44.8125 12.4414 45.7012 12.9492 46.3359L23.4863 56.873C23.9941 57.5078 25.0098 57.5078 25.6445 56.873L43.7988 38.8457C44.3066 38.3379 44.3066 37.3223 43.7988 36.6875Z" fill="#03C4A1"/>
</svg>
