<svg width="240" height="100" viewBox="0 0 240 100" fill="none" xmlns="http://www.w3.org/2000/svg">
<rect width="240" height="100" rx="5" fill="#03C4A1"/>
<path d="M94.7376 65H75.8851V60.6055L84.5423 49.5972C85.6409 48.0737 86.4466 46.7407 86.9593 45.5981C87.4866 44.4409 87.7503 43.335 87.7503 42.2803C87.7503 40.8594 87.5013 39.7461 87.0032 38.9404C86.5198 38.1348 85.8167 37.7319 84.8938 37.7319C83.8831 37.7319 83.0774 38.2007 82.4769 39.1382C81.8909 40.0757 81.5979 41.394 81.5979 43.0933H75.3577C75.3577 41.1304 75.7605 39.3359 76.5662 37.71C77.3865 36.084 78.5291 34.8242 79.9939 33.9307C81.4734 33.0225 83.1434 32.5684 85.0037 32.5684C87.8602 32.5684 90.0721 33.3594 91.6395 34.9414C93.2215 36.5088 94.0125 38.7427 94.0125 41.6431C94.0125 43.4448 93.573 45.2759 92.6941 47.1362C91.8299 48.9819 90.2552 51.2598 87.97 53.9697L83.8611 59.8364H94.7376V65ZM117.688 51.7725C117.688 56.1963 116.882 59.5801 115.271 61.9238C113.674 64.2676 111.389 65.4395 108.415 65.4395C105.471 65.4395 103.193 64.3042 101.582 62.0337C99.985 59.7485 99.1573 56.4819 99.0987 52.2339V46.1914C99.0987 41.7822 99.8971 38.4131 101.494 36.084C103.09 33.7402 105.383 32.5684 108.371 32.5684C111.359 32.5684 113.652 33.7256 115.249 36.04C116.845 38.3545 117.658 41.6577 117.688 45.9497V51.7725ZM111.447 45.2905C111.447 42.771 111.198 40.8813 110.7 39.6216C110.202 38.3618 109.426 37.7319 108.371 37.7319C106.394 37.7319 105.368 40.0391 105.295 44.6533V52.6294C105.295 55.2075 105.544 57.1265 106.042 58.3862C106.555 59.646 107.346 60.2759 108.415 60.2759C109.426 60.2759 110.173 59.6899 110.656 58.5181C111.154 57.3315 111.418 55.5225 111.447 53.0908V45.2905ZM136.001 65H129.761V40.5664L123.675 42.9175V37.7319L135.342 32.9639H136.001V65ZM160.358 32.6782V37.9517H160.006C157.677 37.9663 155.824 38.6694 154.447 40.061C153.085 41.438 152.257 43.3716 151.964 45.8618C153.297 44.3384 154.967 43.5767 156.974 43.5767C159.288 43.5767 161.134 44.5654 162.511 46.543C163.903 48.5205 164.598 51.1572 164.598 54.4531C164.598 56.5479 164.203 58.4375 163.412 60.1221C162.621 61.8066 161.508 63.1177 160.072 64.0552C158.651 64.978 157.04 65.4395 155.238 65.4395C152.338 65.4395 150.008 64.2749 148.251 61.9458C146.508 59.6167 145.636 56.4819 145.636 52.5415V50.2344C145.636 46.7041 146.185 43.6133 147.284 40.9619C148.397 38.3105 149.994 36.2744 152.074 34.8535C154.169 33.418 156.608 32.6929 159.391 32.6782H160.358ZM155.018 48.7183C154.227 48.7183 153.561 48.9673 153.019 49.4653C152.491 49.9634 152.096 50.5786 151.832 51.311V53.5522C151.832 55.8081 152.133 57.4927 152.733 58.606C153.334 59.7192 154.125 60.2759 155.106 60.2759C156.102 60.2759 156.901 59.7412 157.501 58.6719C158.102 57.5879 158.402 56.2036 158.402 54.519C158.402 52.8052 158.087 51.4136 157.457 50.3442C156.842 49.2603 156.029 48.7183 155.018 48.7183Z" fill="white"/>
</svg>
