<svg width="240" height="100" viewBox="0 0 240 100" fill="none" xmlns="http://www.w3.org/2000/svg">
<rect width="240" height="100" rx="5" fill="#03C4A1"/>
<path d="M94.7376 65H75.8851V60.6055L84.5423 49.5972C85.6409 48.0737 86.4466 46.7407 86.9593 45.5981C87.4866 44.4409 87.7503 43.335 87.7503 42.2803C87.7503 40.8594 87.5013 39.7461 87.0032 38.9404C86.5198 38.1348 85.8167 37.7319 84.8938 37.7319C83.8831 37.7319 83.0774 38.2007 82.4769 39.1382C81.8909 40.0757 81.5979 41.394 81.5979 43.0933H75.3577C75.3577 41.1304 75.7605 39.3359 76.5662 37.71C77.3865 36.084 78.5291 34.8242 79.9939 33.9307C81.4734 33.0225 83.1434 32.5684 85.0037 32.5684C87.8602 32.5684 90.0721 33.3594 91.6395 34.9414C93.2215 36.5088 94.0125 38.7427 94.0125 41.6431C94.0125 43.4448 93.573 45.2759 92.6941 47.1362C91.8299 48.9819 90.2552 51.2598 87.97 53.9697L83.8611 59.8364H94.7376V65ZM117.688 51.7725C117.688 56.1963 116.882 59.5801 115.271 61.9238C113.674 64.2676 111.389 65.4395 108.415 65.4395C105.471 65.4395 103.193 64.3042 101.582 62.0337C99.985 59.7485 99.1573 56.4819 99.0987 52.2339V46.1914C99.0987 41.7822 99.8971 38.4131 101.494 36.084C103.09 33.7402 105.383 32.5684 108.371 32.5684C111.359 32.5684 113.652 33.7256 115.249 36.04C116.845 38.3545 117.658 41.6577 117.688 45.9497V51.7725ZM111.447 45.2905C111.447 42.771 111.198 40.8813 110.7 39.6216C110.202 38.3618 109.426 37.7319 108.371 37.7319C106.394 37.7319 105.368 40.0391 105.295 44.6533V52.6294C105.295 55.2075 105.544 57.1265 106.042 58.3862C106.555 59.646 107.346 60.2759 108.415 60.2759C109.426 60.2759 110.173 59.6899 110.656 58.5181C111.154 57.3315 111.418 55.5225 111.447 53.0908V45.2905ZM136.001 65H129.761V40.5664L123.675 42.9175V37.7319L135.342 32.9639H136.001V65ZM163.456 41.5112C163.456 43.064 163.126 44.4409 162.467 45.6421C161.808 46.8433 160.9 47.8027 159.742 48.5205C161.061 49.2676 162.101 50.3003 162.863 51.6187C163.624 52.9224 164.005 54.4604 164.005 56.2329C164.005 59.0747 163.185 61.3232 161.544 62.9785C159.904 64.6191 157.67 65.4395 154.842 65.4395C152.015 65.4395 149.767 64.6191 148.097 62.9785C146.427 61.3232 145.592 59.0747 145.592 56.2329C145.592 54.4604 145.973 52.915 146.735 51.5967C147.496 50.2783 148.544 49.2529 149.877 48.5205C148.705 47.8027 147.789 46.8433 147.13 45.6421C146.471 44.4409 146.141 43.064 146.141 41.5112C146.141 38.7134 146.925 36.5234 148.492 34.9414C150.06 33.3594 152.162 32.5684 154.799 32.5684C157.465 32.5684 159.574 33.3667 161.127 34.9634C162.679 36.5601 163.456 38.7427 163.456 41.5112ZM154.842 60.2759C155.78 60.2759 156.498 59.8804 156.996 59.0894C157.508 58.2837 157.765 57.1704 157.765 55.7495C157.765 54.3286 157.501 53.2153 156.974 52.4097C156.446 51.604 155.721 51.2012 154.799 51.2012C153.876 51.2012 153.143 51.604 152.601 52.4097C152.074 53.2153 151.81 54.3286 151.81 55.7495C151.81 57.1704 152.074 58.2837 152.601 59.0894C153.143 59.8804 153.89 60.2759 154.842 60.2759ZM157.259 41.8408C157.259 40.5957 157.054 39.5996 156.644 38.8525C156.249 38.1055 155.633 37.7319 154.799 37.7319C154.008 37.7319 153.407 38.0981 152.997 38.8306C152.587 39.5483 152.382 40.5518 152.382 41.8408C152.382 43.1006 152.587 44.1187 152.997 44.895C153.407 45.6567 154.022 46.0376 154.842 46.0376C155.663 46.0376 156.271 45.6567 156.666 44.895C157.062 44.1187 157.259 43.1006 157.259 41.8408Z" fill="white"/>
</svg>
