<svg width="240" height="100" viewBox="0 0 240 100" fill="none" xmlns="http://www.w3.org/2000/svg">
<rect width="240" height="100" rx="5" fill="#03C4A1"/>
<path d="M94.7376 65H75.8851V60.6055L84.5423 49.5972C85.6409 48.0737 86.4466 46.7407 86.9593 45.5981C87.4866 44.4409 87.7503 43.335 87.7503 42.2803C87.7503 40.8594 87.5013 39.7461 87.0032 38.9404C86.5198 38.1348 85.8167 37.7319 84.8938 37.7319C83.8831 37.7319 83.0774 38.2007 82.4769 39.1382C81.8909 40.0757 81.5979 41.394 81.5979 43.0933H75.3577C75.3577 41.1304 75.7605 39.3359 76.5662 37.71C77.3865 36.084 78.5291 34.8242 79.9939 33.9307C81.4734 33.0225 83.1434 32.5684 85.0037 32.5684C87.8602 32.5684 90.0721 33.3594 91.6395 34.9414C93.2215 36.5088 94.0125 38.7427 94.0125 41.6431C94.0125 43.4448 93.573 45.2759 92.6941 47.1362C91.8299 48.9819 90.2552 51.2598 87.97 53.9697L83.8611 59.8364H94.7376V65ZM117.688 51.7725C117.688 56.1963 116.882 59.5801 115.271 61.9238C113.674 64.2676 111.389 65.4395 108.415 65.4395C105.471 65.4395 103.193 64.3042 101.582 62.0337C99.985 59.7485 99.1573 56.4819 99.0987 52.2339V46.1914C99.0987 41.7822 99.8971 38.4131 101.494 36.084C103.09 33.7402 105.383 32.5684 108.371 32.5684C111.359 32.5684 113.652 33.7256 115.249 36.04C116.845 38.3545 117.658 41.6577 117.688 45.9497V51.7725ZM111.447 45.2905C111.447 42.771 111.198 40.8813 110.7 39.6216C110.202 38.3618 109.426 37.7319 108.371 37.7319C106.394 37.7319 105.368 40.0391 105.295 44.6533V52.6294C105.295 55.2075 105.544 57.1265 106.042 58.3862C106.555 59.646 107.346 60.2759 108.415 60.2759C109.426 60.2759 110.173 59.6899 110.656 58.5181C111.154 57.3315 111.418 55.5225 111.447 53.0908V45.2905ZM136.001 65H129.761V40.5664L123.675 42.9175V37.7319L135.342 32.9639H136.001V65ZM157.589 52.6294C156.271 53.9771 154.828 54.6509 153.26 54.6509C150.829 54.6509 148.91 53.6768 147.504 51.7285C146.112 49.7656 145.416 47.1509 145.416 43.8843C145.416 41.7749 145.812 39.8486 146.603 38.1055C147.394 36.3477 148.492 34.9854 149.899 34.0186C151.32 33.0518 152.902 32.5684 154.645 32.5684C156.446 32.5684 158.05 33.103 159.457 34.1724C160.863 35.2417 161.954 36.7798 162.731 38.7866C163.507 40.7788 163.895 43.0493 163.895 45.5981V47.8613C163.895 53.3105 162.694 57.5732 160.292 60.6494C157.904 63.7109 154.513 65.271 150.118 65.3296H149.481V59.9683H149.899C152.33 59.9536 154.154 59.3237 155.37 58.0786C156.6 56.8335 157.34 55.0171 157.589 52.6294ZM154.842 49.7729C156.044 49.7729 156.988 48.9526 157.677 47.312V44.4556C157.677 42.3608 157.391 40.7202 156.82 39.5337C156.249 38.3325 155.509 37.7319 154.601 37.7319C153.707 37.7319 152.982 38.3252 152.425 39.5117C151.883 40.6836 151.613 42.1191 151.613 43.8184C151.613 45.6641 151.898 47.1216 152.469 48.1909C153.041 49.2456 153.832 49.7729 154.842 49.7729Z" fill="white"/>
</svg>
