<svg width="240" height="100" viewBox="0 0 240 100" fill="none" xmlns="http://www.w3.org/2000/svg">
<rect width="240" height="100" rx="5" fill="#03C4A1"/>
<path d="M94.7376 65H75.8851V60.6055L84.5423 49.5972C85.6409 48.0737 86.4466 46.7407 86.9593 45.5981C87.4866 44.4409 87.7503 43.335 87.7503 42.2803C87.7503 40.8594 87.5013 39.7461 87.0032 38.9404C86.5198 38.1348 85.8167 37.7319 84.8938 37.7319C83.8831 37.7319 83.0774 38.2007 82.4769 39.1382C81.8909 40.0757 81.5979 41.394 81.5979 43.0933H75.3577C75.3577 41.1304 75.7605 39.3359 76.5662 37.71C77.3865 36.084 78.5291 34.8242 79.9939 33.9307C81.4734 33.0225 83.1434 32.5684 85.0037 32.5684C87.8602 32.5684 90.0721 33.3594 91.6395 34.9414C93.2215 36.5088 94.0125 38.7427 94.0125 41.6431C94.0125 43.4448 93.573 45.2759 92.6941 47.1362C91.8299 48.9819 90.2552 51.2598 87.97 53.9697L83.8611 59.8364H94.7376V65ZM117.688 51.7725C117.688 56.1963 116.882 59.5801 115.271 61.9238C113.674 64.2676 111.389 65.4395 108.415 65.4395C105.471 65.4395 103.193 64.3042 101.582 62.0337C99.985 59.7485 99.1573 56.4819 99.0987 52.2339V46.1914C99.0987 41.7822 99.8971 38.4131 101.494 36.084C103.09 33.7402 105.383 32.5684 108.371 32.5684C111.359 32.5684 113.652 33.7256 115.249 36.04C116.845 38.3545 117.658 41.6577 117.688 45.9497V51.7725ZM111.447 45.2905C111.447 42.771 111.198 40.8813 110.7 39.6216C110.202 38.3618 109.426 37.7319 108.371 37.7319C106.394 37.7319 105.368 40.0391 105.295 44.6533V52.6294C105.295 55.2075 105.544 57.1265 106.042 58.3862C106.555 59.646 107.346 60.2759 108.415 60.2759C109.426 60.2759 110.173 59.6899 110.656 58.5181C111.154 57.3315 111.418 55.5225 111.447 53.0908V45.2905ZM141.165 65H122.312V60.6055L130.97 49.5972C132.068 48.0737 132.874 46.7407 133.387 45.5981C133.914 44.4409 134.178 43.335 134.178 42.2803C134.178 40.8594 133.929 39.7461 133.431 38.9404C132.947 38.1348 132.244 37.7319 131.321 37.7319C130.31 37.7319 129.505 38.2007 128.904 39.1382C128.318 40.0757 128.025 41.394 128.025 43.0933H121.785C121.785 41.1304 122.188 39.3359 122.994 37.71C123.814 36.084 124.956 34.8242 126.421 33.9307C127.901 33.0225 129.571 32.5684 131.431 32.5684C134.288 32.5684 136.499 33.3594 138.067 34.9414C139.649 36.5088 140.44 38.7427 140.44 41.6431C140.44 43.4448 140 45.2759 139.121 47.1362C138.257 48.9819 136.683 51.2598 134.397 53.9697L130.288 59.8364H141.165V65ZM159.215 65H152.975V40.5664L146.888 42.9175V37.7319L158.556 32.9639H159.215V65Z" fill="white"/>
</svg>
