<svg width="154" height="23" viewBox="0 0 154 23" fill="none" xmlns="http://www.w3.org/2000/svg">
<path d="M10.1172 2.20312L7.57812 7.39844L1.83594 8.21875C0.820312 8.375 0.429688 9.625 1.17188 10.3672L5.27344 14.3906L4.29688 20.0547C4.14062 21.0703 5.23438 21.8516 6.13281 21.3828L11.25 18.6875L16.3281 21.3828C17.2266 21.8516 18.3203 21.0703 18.1641 20.0547L17.1875 14.3906L21.2891 10.3672C22.0312 9.625 21.6406 8.375 20.625 8.21875L14.9219 7.39844L12.3438 2.20312C11.9141 1.30469 10.5859 1.26562 10.1172 2.20312Z" fill="#FFB545"/>
<path d="M43.1172 2.20312L40.5781 7.39844L34.8359 8.21875C33.8203 8.375 33.4297 9.625 34.1719 10.3672L38.2734 14.3906L37.2969 20.0547C37.1406 21.0703 38.2344 21.8516 39.1328 21.3828L44.25 18.6875L49.3281 21.3828C50.2266 21.8516 51.3203 21.0703 51.1641 20.0547L50.1875 14.3906L54.2891 10.3672C55.0312 9.625 54.6406 8.375 53.625 8.21875L47.9219 7.39844L45.3438 2.20312C44.9141 1.30469 43.5859 1.26562 43.1172 2.20312Z" fill="#FFB545"/>
<path d="M76.1172 2.20312L73.5781 7.39844L67.8359 8.21875C66.8203 8.375 66.4297 9.625 67.1719 10.3672L71.2734 14.3906L70.2969 20.0547C70.1406 21.0703 71.2344 21.8516 72.1328 21.3828L77.25 18.6875L82.3281 21.3828C83.2266 21.8516 84.3203 21.0703 84.1641 20.0547L83.1875 14.3906L87.2891 10.3672C88.0312 9.625 87.6406 8.375 86.625 8.21875L80.9219 7.39844L78.3438 2.20312C77.9141 1.30469 76.5859 1.26562 76.1172 2.20312Z" fill="#FFB545"/>
<path d="M109.117 2.20312L106.578 7.39844L100.836 8.21875C99.8203 8.375 99.4297 9.625 100.172 10.3672L104.273 14.3906L103.297 20.0547C103.141 21.0703 104.234 21.8516 105.133 21.3828L110.25 18.6875L115.328 21.3828C116.227 21.8516 117.32 21.0703 117.164 20.0547L116.188 14.3906L120.289 10.3672C121.031 9.625 120.641 8.375 119.625 8.21875L113.922 7.39844L111.344 2.20312C110.914 1.30469 109.586 1.26562 109.117 2.20312Z" fill="#FFB545"/>
<path d="M151.844 8.21875L146.141 7.39844L143.562 2.20312C143.328 1.73438 142.898 1.5 142.43 1.5C142 1.5 141.57 1.73438 141.336 2.20312L138.758 7.39844L133.055 8.21875C132.039 8.375 131.609 9.625 132.352 10.3672L136.492 14.3906L135.516 20.0547C135.359 20.875 136.023 21.5 136.766 21.5C136.961 21.5 137.156 21.4609 137.352 21.3828L142.43 18.6875L147.547 21.3828C147.742 21.4609 147.938 21.5 148.133 21.5C148.875 21.5 149.5 20.875 149.383 20.0547L148.406 14.3906L152.547 10.3672C153.289 9.625 152.859 8.375 151.844 8.21875ZM147.078 13.0234L146.375 13.7266L146.531 14.7031L147.312 19.1172L143.328 17.0469L142.43 16.5781L142.469 4.19531L144.461 8.21875L144.891 9.11719L145.867 9.23438L150.32 9.89844L147.078 13.0234Z" fill="#FFB545"/>
</svg>
