<svg width="23" height="23" viewBox="0 0 23 23" fill="none" xmlns="http://www.w3.org/2000/svg">
<path d="M11.9375 6.00977C15.0137 6.00977 17.5527 8.54883 17.5527 11.625C17.5527 14.75 15.0137 17.2402 11.9375 17.2402C8.8125 17.2402 6.32227 14.75 6.32227 11.625C6.32227 8.54883 8.8125 6.00977 11.9375 6.00977ZM11.9375 15.2871C13.9395 15.2871 15.5508 13.6758 15.5508 11.625C15.5508 9.62305 13.9395 8.01172 11.9375 8.01172C9.88672 8.01172 8.27539 9.62305 8.27539 11.625C8.27539 13.6758 9.93555 15.2871 11.9375 15.2871ZM19.0664 5.81445C19.0664 6.54688 18.4805 7.13281 17.748 7.13281C17.0156 7.13281 16.4297 6.54688 16.4297 5.81445C16.4297 5.08203 17.0156 4.49609 17.748 4.49609C18.4805 4.49609 19.0664 5.08203 19.0664 5.81445ZM22.7773 7.13281C22.875 8.93945 22.875 14.3594 22.7773 16.166C22.6797 17.9238 22.2891 19.4375 21.0195 20.7559C19.75 22.0254 18.1875 22.416 16.4297 22.5137C14.623 22.6113 9.20312 22.6113 7.39648 22.5137C5.63867 22.416 4.125 22.0254 2.80664 20.7559C1.53711 19.4375 1.14648 17.9238 1.04883 16.166C0.951172 14.3594 0.951172 8.93945 1.04883 7.13281C1.14648 5.375 1.53711 3.8125 2.80664 2.54297C4.125 1.27344 5.63867 0.882812 7.39648 0.785156C9.20312 0.6875 14.623 0.6875 16.4297 0.785156C18.1875 0.882812 19.75 1.27344 21.0195 2.54297C22.2891 3.8125 22.6797 5.375 22.7773 7.13281ZM20.4336 18.0703C21.0195 16.6543 20.873 13.2363 20.873 11.625C20.873 10.0625 21.0195 6.64453 20.4336 5.17969C20.043 4.25195 19.3105 3.4707 18.3828 3.12891C16.918 2.54297 13.5 2.68945 11.9375 2.68945C10.3262 2.68945 6.9082 2.54297 5.49219 3.12891C4.51562 3.51953 3.7832 4.25195 3.39258 5.17969C2.80664 6.64453 2.95312 10.0625 2.95312 11.625C2.95312 13.2363 2.80664 16.6543 3.39258 18.0703C3.7832 19.0469 4.51562 19.7793 5.49219 20.1699C6.9082 20.7559 10.3262 20.6094 11.9375 20.6094C13.5 20.6094 16.918 20.7559 18.3828 20.1699C19.3105 19.7793 20.0918 19.0469 20.4336 18.0703Z" fill="#03C4A1"/>
</svg>
