<svg width="179" height="40" viewBox="0 0 179 40" fill="none" xmlns="http://www.w3.org/2000/svg">
<path d="M0 31.3866V34.6334C0 37.4165 6.87374 39.5811 15.346 39.5811C23.8182 39.5811 30.692 37.4165 30.692 34.6334V31.3866C27.3351 33.6284 21.3405 34.6334 15.346 34.6334C9.27155 34.6334 3.27701 33.6284 0 31.3866ZM25.5766 9.89526C34.0489 9.89526 40.9226 7.73067 40.9226 4.94763C40.9226 2.2419 34.0489 0 25.5766 0C17.1044 0 10.2307 2.2419 10.2307 4.94763C10.2307 7.73067 17.1044 9.89526 25.5766 9.89526ZM0 23.2693V27.212C0 29.995 6.87374 32.1596 15.346 32.1596C23.8182 32.1596 30.692 29.995 30.692 27.212V23.2693C27.3351 25.8978 21.3405 27.212 15.346 27.212C9.27155 27.212 3.27701 25.8978 0 23.2693ZM33.2496 24.1197C37.8055 23.2693 40.9226 21.6459 40.9226 19.7905V16.5437C39.0044 17.7805 36.2868 18.6309 33.2496 19.1721V24.1197ZM15.346 12.3691C6.87374 12.3691 0 15.1521 0 18.5536C0 22.0324 6.87374 24.7382 15.346 24.7382C23.8182 24.7382 30.692 22.0324 30.692 18.5536C30.692 15.1521 23.8182 12.3691 15.346 12.3691ZM32.85 16.7755C37.6456 15.9252 40.9226 14.3017 40.9226 12.3691V9.12222C38.0453 11.0549 33.1697 12.0599 28.0543 12.3691C30.3723 13.4513 32.1307 14.9202 32.85 16.7755Z" fill="#03C4A1"/>
<path d="M69.9405 31.6221L74.8361 11.2131H81.39L72.9977 39.3528H66.8833L58.5508 11.2131H65.065L69.9405 31.6221Z" fill="white"/>
<path d="M91.8284 39.3526H86.1534V18.4411H91.8284V39.3526ZM85.894 13.0297C85.894 12.1793 86.1736 11.4835 86.7333 10.9423C87.2923 10.4012 88.0384 10.1306 88.9708 10.1306C89.9032 10.1306 90.6492 10.4012 91.2089 10.9423C91.7686 11.4835 92.0482 12.1793 92.0482 13.0297C92.0482 13.8671 91.7686 14.5629 91.2089 15.1169C90.6631 15.6709 89.917 15.9479 88.9708 15.9479C88.0252 15.9479 87.2728 15.6709 86.7131 15.1169C86.1666 14.5629 85.894 13.8671 85.894 13.0297Z" fill="white"/>
<path d="M108.921 23.7174L107.042 23.5628C105.497 23.5628 104.452 24.2199 103.906 25.5341V39.3527H98.2307V18.4412H103.566L103.726 20.7025C104.618 18.9373 105.851 18.0547 107.422 18.0547C108.062 18.0547 108.581 18.1384 108.981 18.3059L108.921 23.7174Z" fill="white"/>
<path d="M121.457 13.3003V18.4412H124.355V22.5578H121.457V32.9362C121.457 33.7608 121.57 34.3277 121.797 34.637C122.037 34.9462 122.49 35.1008 123.156 35.1008C123.702 35.1008 124.149 35.0557 124.495 34.9655L124.455 39.2174C123.496 39.5652 122.456 39.7392 121.337 39.7392C117.688 39.7392 115.843 37.7163 115.803 33.6706V22.5578H113.305V18.4412H115.803V13.3003H121.457Z" fill="white"/>
<path d="M140.148 37.4393C138.976 38.9725 137.404 39.7392 135.432 39.7392C133.448 39.7392 131.943 39.0821 130.916 37.7678C129.891 36.4407 129.378 34.5145 129.378 31.9891V18.4412H135.033V32.1244C135.06 34.1602 135.759 35.178 137.131 35.178C138.423 35.178 139.355 34.6369 139.928 33.5546V18.4412H145.623V39.3526H140.308L140.148 37.4393Z" fill="white"/>
<path d="M161.976 39.3527C161.816 39.0306 161.657 38.4895 161.497 37.7293C160.485 39.0692 159.112 39.7393 157.381 39.7393C155.569 39.7393 154.064 39.1594 152.865 37.9998C151.679 36.8402 151.086 35.3392 151.086 33.4967C151.086 31.3064 151.806 29.612 153.245 28.4138C154.696 27.2156 156.781 26.6035 159.499 26.5778H161.217V24.8964C161.217 23.9558 161.051 23.2922 160.718 22.9057C160.385 22.5192 159.899 22.3259 159.259 22.3259C157.847 22.3259 157.141 23.1247 157.141 24.7224H151.486C151.486 22.7897 152.232 21.1985 153.724 19.9487C155.229 18.686 157.128 18.0547 159.419 18.0547C161.79 18.0547 163.621 18.6538 164.914 19.8521C166.219 21.0375 166.872 22.7382 166.872 24.9543V34.7916C166.899 36.5954 167.165 38.0063 167.671 39.0241V39.3527H161.976ZM158.64 35.4487C159.266 35.4487 159.799 35.3263 160.238 35.0815C160.677 34.8367 161.004 34.5468 161.217 34.2118V29.8633H159.858C158.9 29.8633 158.14 30.1597 157.581 30.7523C157.034 31.345 156.761 32.1374 156.761 33.1295C156.761 34.6756 157.387 35.4487 158.64 35.4487Z" fill="white"/>
<path d="M178.949 39.3528H173.274V9.66699H178.949V39.3528Z" fill="white"/>
</svg>
