<svg width="18" height="21" viewBox="0 0 18 21" fill="none" xmlns="http://www.w3.org/2000/svg">
<path d="M0 18.625V8H17.5V18.625C17.5 19.6797 16.6406 20.5 15.625 20.5H1.875C0.820312 20.5 0 19.6797 0 18.625ZM2.5 11.125V14.875C2.5 15.2266 2.77344 15.5 3.125 15.5H6.875C7.1875 15.5 7.5 15.2266 7.5 14.875V11.125C7.5 10.8125 7.1875 10.5 6.875 10.5H3.125C2.77344 10.5 2.5 10.8125 2.5 11.125ZM15.625 3C16.6406 3 17.5 3.85938 17.5 4.875V6.75H0V4.875C0 3.85938 0.820312 3 1.875 3H3.75V1.125C3.75 0.8125 4.02344 0.5 4.375 0.5H5.625C5.9375 0.5 6.25 0.8125 6.25 1.125V3H11.25V1.125C11.25 0.8125 11.5234 0.5 11.875 0.5H13.125C13.4375 0.5 13.75 0.8125 13.75 1.125V3H15.625Z" fill="#03C4A1"/>
</svg>
