<svg width="180" height="180" viewBox="0 0 180 180" fill="none" xmlns="http://www.w3.org/2000/svg">
<circle cx="90" cy="90" r="82.5" stroke="white" stroke-width="15"/>
<mask id="path-2-inside-1_7_12" fill="white">
<path d="M39.1277 155.003C36.5897 158.246 37.146 162.962 40.5879 165.223C52.1143 172.794 65.257 177.634 79.0105 179.327C95.2373 181.323 111.701 178.861 126.635 172.206C141.568 165.552 154.407 154.955 163.772 141.553C173.137 128.152 178.674 112.453 179.79 96.1424C180.906 79.8314 177.558 63.5246 170.105 48.973C162.652 34.4214 151.376 22.1748 137.488 13.5483C123.6 4.92171 107.625 0.241103 91.2773 0.00906495C77.4215 -0.187607 63.7421 2.81786 51.292 8.74918C47.5743 10.5203 46.3811 15.1159 48.4538 18.6743C50.5265 22.2327 55.0792 23.3998 58.8256 21.6901C68.9105 17.0876 79.9197 14.7622 91.0657 14.9204C104.704 15.114 118.033 19.019 129.62 26.2162C141.206 33.4133 150.614 43.6307 156.832 55.7711C163.05 67.9115 165.843 81.5163 164.912 95.1246C163.981 108.733 159.361 121.831 151.548 133.011C143.734 144.192 133.023 153.033 120.564 158.585C108.105 164.137 94.3695 166.191 80.8314 164.525C69.7677 163.164 59.1778 159.361 49.8135 153.428C46.3349 151.224 41.6657 151.76 39.1277 155.003Z"/>
</mask>
<path d="M39.1277 155.003C36.5897 158.246 37.146 162.962 40.5879 165.223C52.1143 172.794 65.257 177.634 79.0105 179.327C95.2373 181.323 111.701 178.861 126.635 172.206C141.568 165.552 154.407 154.955 163.772 141.553C173.137 128.152 178.674 112.453 179.79 96.1424C180.906 79.8314 177.558 63.5246 170.105 48.973C162.652 34.4214 151.376 22.1748 137.488 13.5483C123.6 4.92171 107.625 0.241103 91.2773 0.00906495C77.4215 -0.187607 63.7421 2.81786 51.292 8.74918C47.5743 10.5203 46.3811 15.1159 48.4538 18.6743C50.5265 22.2327 55.0792 23.3998 58.8256 21.6901C68.9105 17.0876 79.9197 14.7622 91.0657 14.9204C104.704 15.114 118.033 19.019 129.62 26.2162C141.206 33.4133 150.614 43.6307 156.832 55.7711C163.05 67.9115 165.843 81.5163 164.912 95.1246C163.981 108.733 159.361 121.831 151.548 133.011C143.734 144.192 133.023 153.033 120.564 158.585C108.105 164.137 94.3695 166.191 80.8314 164.525C69.7677 163.164 59.1778 159.361 49.8135 153.428C46.3349 151.224 41.6657 151.76 39.1277 155.003Z" stroke="#03C4A1" stroke-width="30" mask="url(#path-2-inside-1_7_12)"/>
<path d="M78.5195 80.0435V82.9731H78.3242C77.0303 82.9813 76.0008 83.3719 75.2358 84.145C74.479 84.91 74.0192 85.9842 73.8564 87.3677C74.597 86.5213 75.5247 86.0981 76.6396 86.0981C77.9255 86.0981 78.9508 86.6475 79.7158 87.7461C80.4889 88.8447 80.8755 90.3096 80.8755 92.1406C80.8755 93.3044 80.6558 94.3542 80.2163 95.29C79.7769 96.2259 79.1584 96.9543 78.3608 97.4751C77.5715 97.9878 76.6763 98.2441 75.6753 98.2441C74.064 98.2441 72.77 97.5972 71.7935 96.3032C70.825 95.0093 70.3408 93.2677 70.3408 91.0786V89.7969C70.3408 87.8356 70.646 86.1185 71.2563 84.6455C71.8748 83.1725 72.7619 82.0413 73.9175 81.252C75.0812 80.4544 76.4362 80.0516 77.9824 80.0435H78.5195ZM75.5532 88.9546C75.1138 88.9546 74.7435 89.0929 74.4424 89.3696C74.1494 89.6463 73.9297 89.9881 73.7832 90.395V91.6401C73.7832 92.8934 73.95 93.8293 74.2837 94.4478C74.6174 95.0662 75.0568 95.3755 75.6021 95.3755C76.1554 95.3755 76.599 95.0785 76.9326 94.4844C77.2663 93.8822 77.4331 93.1131 77.4331 92.1772C77.4331 91.2251 77.2581 90.452 76.9082 89.8579C76.5664 89.2557 76.1147 88.9546 75.5532 88.9546ZM83.5303 89.2598L84.4092 80.2266H93.0151V83.1807H87.2412L86.9238 86.9893C87.5911 86.5417 88.2788 86.3179 88.9868 86.3179C90.4517 86.3179 91.5788 86.8387 92.3682 87.8804C93.1657 88.922 93.5645 90.395 93.5645 92.2993C93.5645 94.0815 93.0924 95.5179 92.1484 96.6084C91.2044 97.6989 89.943 98.2441 88.3643 98.2441C87.4284 98.2441 86.5617 98.0244 85.7642 97.585C84.9666 97.1374 84.3359 96.5189 83.8721 95.7295C83.4163 94.9401 83.1844 94.0449 83.1763 93.0439H86.5942C86.6512 93.7845 86.8343 94.3582 87.1436 94.7651C87.4528 95.172 87.8516 95.3755 88.3398 95.3755C88.9095 95.3755 89.349 95.1029 89.6582 94.5576C89.9674 94.0042 90.1221 93.1823 90.1221 92.0918C90.1221 91.0664 89.9349 90.2933 89.5605 89.7725C89.1943 89.2516 88.6776 88.9912 88.0103 88.9912C87.3592 88.9912 86.8547 89.215 86.4966 89.6626L86.2769 89.9678L83.5303 89.2598ZM96.0972 83.6445C96.0972 82.5622 96.3942 81.6792 96.9883 80.9956C97.5905 80.312 98.4002 79.9702 99.4175 79.9702C100.435 79.9702 101.244 80.3079 101.847 80.9834C102.457 81.6507 102.762 82.554 102.762 83.6934V84.5845C102.762 85.6831 102.461 86.5661 101.859 87.2334C101.257 87.9007 100.451 88.2344 99.4419 88.2344C98.4409 88.2344 97.6312 87.9007 97.0127 87.2334C96.4023 86.5661 96.0972 85.6587 96.0972 84.5112V83.6445ZM98.3433 84.5845C98.3433 85.0728 98.445 85.4634 98.6484 85.7563C98.86 86.0412 99.1245 86.1836 99.4419 86.1836C99.7674 86.1836 100.024 86.033 100.211 85.7319C100.406 85.4308 100.504 85.0361 100.504 84.5479V83.6445C100.504 83.1725 100.406 82.786 100.211 82.4849C100.016 82.1756 99.7511 82.021 99.4175 82.021C99.092 82.021 98.8315 82.1756 98.6362 82.4849C98.4409 82.786 98.3433 83.1847 98.3433 83.6812V84.5845ZM103.104 93.6421C103.104 92.5435 103.409 91.6605 104.02 90.9932C104.63 90.3177 105.436 89.98 106.437 89.98C107.446 89.98 108.255 90.3136 108.866 90.981C109.476 91.6401 109.781 92.5475 109.781 93.7031V94.5942C109.781 95.6847 109.484 96.5677 108.89 97.2432C108.296 97.9105 107.486 98.2441 106.461 98.2441C105.427 98.2441 104.61 97.9064 104.007 97.231C103.405 96.5555 103.104 95.6603 103.104 94.5454V93.6421ZM105.362 94.5942C105.362 95.05 105.468 95.4325 105.68 95.7417C105.899 96.0509 106.16 96.2056 106.461 96.2056C107.136 96.2056 107.49 95.7214 107.523 94.7529V93.6421C107.523 93.1619 107.421 92.7754 107.218 92.4824C107.022 92.1813 106.762 92.0308 106.437 92.0308C105.72 92.0308 105.362 92.6533 105.362 93.8984V94.5942ZM100.064 96.6694L98.4287 95.7417L105.716 81.8501L107.364 82.7778L100.064 96.6694Z" fill="white"/>
</svg>
