<svg width="180" height="180" viewBox="0 0 180 180" fill="none" xmlns="http://www.w3.org/2000/svg">
<circle cx="90" cy="90" r="82.5" stroke="white" stroke-width="15"/>
<mask id="path-2-inside-1_7_18" fill="white">
<path d="M8.20297 101.077C4.12216 101.629 1.23097 105.396 2.11932 109.417C6.22079 127.982 16.1169 144.842 30.4726 157.502C46.6991 171.811 67.5372 179.797 89.171 179.996C110.805 180.195 131.787 172.595 148.274 158.587C164.761 144.579 175.651 125.1 178.948 103.718C182.246 82.3361 177.731 60.4818 166.23 42.1571C154.729 23.8324 137.013 10.2637 116.324 3.93578C95.6353 -2.39213 73.3595 -1.05579 53.5757 7.70011C36.0729 15.4465 21.557 28.5415 12.0527 45.0084C9.99415 48.575 11.6162 53.0375 15.3409 54.7939C19.0656 56.5503 23.4778 54.9307 25.5948 51.3984C33.5288 38.1604 45.3879 27.632 59.6111 21.337C76.1168 14.032 94.7015 12.917 111.962 18.1964C129.223 23.4758 144.004 34.7962 153.599 50.0845C163.194 65.3729 166.961 83.606 164.21 101.445C161.459 119.284 152.373 135.535 138.618 147.222C124.863 158.909 107.358 165.25 89.3084 165.084C71.2592 164.918 53.8739 158.255 40.3361 146.317C28.6703 136.029 20.5343 122.417 16.9574 107.404C16.003 103.398 12.2838 100.524 8.20297 101.077Z"/>
</mask>
<path d="M8.20297 101.077C4.12216 101.629 1.23097 105.396 2.11932 109.417C6.22079 127.982 16.1169 144.842 30.4726 157.502C46.6991 171.811 67.5372 179.797 89.171 179.996C110.805 180.195 131.787 172.595 148.274 158.587C164.761 144.579 175.651 125.1 178.948 103.718C182.246 82.3361 177.731 60.4818 166.23 42.1571C154.729 23.8324 137.013 10.2637 116.324 3.93578C95.6353 -2.39213 73.3595 -1.05579 53.5757 7.70011C36.0729 15.4465 21.557 28.5415 12.0527 45.0084C9.99415 48.575 11.6162 53.0375 15.3409 54.7939C19.0656 56.5503 23.4778 54.9307 25.5948 51.3984C33.5288 38.1604 45.3879 27.632 59.6111 21.337C76.1168 14.032 94.7015 12.917 111.962 18.1964C129.223 23.4758 144.004 34.7962 153.599 50.0845C163.194 65.3729 166.961 83.606 164.21 101.445C161.459 119.284 152.373 135.535 138.618 147.222C124.863 158.909 107.358 165.25 89.3084 165.084C71.2592 164.918 53.8739 158.255 40.3361 146.317C28.6703 136.029 20.5343 122.417 16.9574 107.404C16.003 103.398 12.2838 100.524 8.20297 101.077Z" stroke="#03C4A1" stroke-width="30" mask="url(#path-2-inside-1_7_18)"/>
<path d="M76.9814 91.1274C76.249 91.8761 75.4474 92.2505 74.5767 92.2505C73.2257 92.2505 72.1597 91.7093 71.3784 90.627C70.6053 89.5365 70.2188 88.0838 70.2188 86.269C70.2188 85.0972 70.4385 84.027 70.8779 83.0586C71.3174 82.082 71.9277 81.3252 72.709 80.7881C73.4984 80.251 74.3773 79.9824 75.3457 79.9824C76.3467 79.9824 77.2378 80.2795 78.019 80.8735C78.8003 81.4676 79.4066 82.3221 79.8379 83.437C80.2692 84.5438 80.4849 85.8052 80.4849 87.2212V88.4785C80.4849 91.5059 79.8175 93.874 78.4829 95.583C77.1564 97.2839 75.2725 98.1506 72.8311 98.1831H72.4771V95.2046H72.709C74.0599 95.1965 75.0731 94.8465 75.7485 94.1548C76.4321 93.4631 76.8431 92.4539 76.9814 91.1274ZM75.4556 89.5405C76.1229 89.5405 76.6478 89.0848 77.0303 88.1733V86.5864C77.0303 85.4227 76.8716 84.5112 76.5542 83.8521C76.2368 83.1847 75.8258 82.8511 75.3213 82.8511C74.8249 82.8511 74.422 83.1807 74.1128 83.8398C73.8117 84.4909 73.6611 85.2884 73.6611 86.2324C73.6611 87.2578 73.8198 88.0675 74.1372 88.6616C74.4546 89.2476 74.894 89.5405 75.4556 89.5405ZM93.5034 90.6514C93.5034 93.109 93.0558 94.9889 92.1606 96.291C91.2736 97.5931 90.0041 98.2441 88.3521 98.2441C86.7163 98.2441 85.4508 97.6134 84.5557 96.3521C83.6686 95.0825 83.2088 93.2677 83.1763 90.9077V87.5508C83.1763 85.1012 83.6198 83.2295 84.5068 81.9355C85.3939 80.6335 86.6675 79.9824 88.3276 79.9824C89.9878 79.9824 91.2614 80.6253 92.1484 81.9111C93.0355 83.1969 93.4871 85.0321 93.5034 87.4165V90.6514ZM90.0366 87.0503C90.0366 85.6506 89.8983 84.6007 89.6216 83.9009C89.3449 83.201 88.9136 82.8511 88.3276 82.8511C87.229 82.8511 86.6593 84.1328 86.6187 86.6963V91.1274C86.6187 92.5597 86.757 93.6258 87.0337 94.3257C87.3185 95.0256 87.758 95.3755 88.3521 95.3755C88.9136 95.3755 89.3286 95.05 89.5972 94.3989C89.8739 93.7397 90.0203 92.7347 90.0366 91.3838V87.0503ZM96.0972 83.6445C96.0972 82.5622 96.3942 81.6792 96.9883 80.9956C97.5905 80.312 98.4002 79.9702 99.4175 79.9702C100.435 79.9702 101.244 80.3079 101.847 80.9834C102.457 81.6507 102.762 82.554 102.762 83.6934V84.5845C102.762 85.6831 102.461 86.5661 101.859 87.2334C101.257 87.9007 100.451 88.2344 99.4419 88.2344C98.4409 88.2344 97.6312 87.9007 97.0127 87.2334C96.4023 86.5661 96.0972 85.6587 96.0972 84.5112V83.6445ZM98.3433 84.5845C98.3433 85.0728 98.445 85.4634 98.6484 85.7563C98.86 86.0412 99.1245 86.1836 99.4419 86.1836C99.7674 86.1836 100.024 86.033 100.211 85.7319C100.406 85.4308 100.504 85.0361 100.504 84.5479V83.6445C100.504 83.1725 100.406 82.786 100.211 82.4849C100.016 82.1756 99.7511 82.021 99.4175 82.021C99.092 82.021 98.8315 82.1756 98.6362 82.4849C98.4409 82.786 98.3433 83.1847 98.3433 83.6812V84.5845ZM103.104 93.6421C103.104 92.5435 103.409 91.6605 104.02 90.9932C104.63 90.3177 105.436 89.98 106.437 89.98C107.446 89.98 108.255 90.3136 108.866 90.981C109.476 91.6401 109.781 92.5475 109.781 93.7031V94.5942C109.781 95.6847 109.484 96.5677 108.89 97.2432C108.296 97.9105 107.486 98.2441 106.461 98.2441C105.427 98.2441 104.61 97.9064 104.007 97.231C103.405 96.5555 103.104 95.6603 103.104 94.5454V93.6421ZM105.362 94.5942C105.362 95.05 105.468 95.4325 105.68 95.7417C105.899 96.0509 106.16 96.2056 106.461 96.2056C107.136 96.2056 107.49 95.7214 107.523 94.7529V93.6421C107.523 93.1619 107.421 92.7754 107.218 92.4824C107.022 92.1813 106.762 92.0308 106.437 92.0308C105.72 92.0308 105.362 92.6533 105.362 93.8984V94.5942ZM100.064 96.6694L98.4287 95.7417L105.716 81.8501L107.364 82.7778L100.064 96.6694Z" fill="white"/>
</svg>
