<svg width="180" height="180" viewBox="0 0 180 180" fill="none" xmlns="http://www.w3.org/2000/svg">
<circle cx="90" cy="90" r="82.5" stroke="white" stroke-width="15"/>
<mask id="path-2-inside-1_7_24" fill="white">
<path d="M39.1277 155.003C36.5897 158.246 37.1461 162.962 40.5879 165.223C54.3159 174.241 70.2951 179.357 86.8042 179.943C105.805 180.618 124.531 175.259 140.298 164.633C156.064 154.008 168.061 138.662 174.567 120.798C181.073 102.933 181.754 83.4664 176.513 65.1904C171.272 46.9144 160.378 30.7676 145.393 19.0659C130.408 7.36406 112.102 0.70841 93.1005 0.0534223C74.0992 -0.601565 55.3785 4.77776 39.6233 15.4199C25.9341 24.6666 15.0947 37.4736 8.23225 52.3962C6.51168 56.1376 8.53883 60.4311 12.4098 61.8362C16.2807 63.2413 20.5245 61.2215 22.3064 57.5089C28.0523 45.5373 36.8931 35.2603 47.9706 27.7777C61.1152 18.8989 76.7339 14.4109 92.5868 14.9574C108.44 15.5038 123.712 21.0567 136.214 30.8195C148.716 40.5823 157.805 54.0536 162.178 69.3013C166.551 84.549 165.982 100.79 160.554 115.694C155.126 130.599 145.117 143.402 131.963 152.267C118.81 161.132 103.186 165.603 87.3338 165.04C73.9743 164.565 61.0307 160.535 49.8135 153.428C46.3349 151.224 41.6657 151.76 39.1277 155.003Z"/>
</mask>
<path d="M39.1277 155.003C36.5897 158.246 37.1461 162.962 40.5879 165.223C54.3159 174.241 70.2951 179.357 86.8042 179.943C105.805 180.618 124.531 175.259 140.298 164.633C156.064 154.008 168.061 138.662 174.567 120.798C181.073 102.933 181.754 83.4664 176.513 65.1904C171.272 46.9144 160.378 30.7676 145.393 19.0659C130.408 7.36406 112.102 0.70841 93.1005 0.0534223C74.0992 -0.601565 55.3785 4.77776 39.6233 15.4199C25.9341 24.6666 15.0947 37.4736 8.23225 52.3962C6.51168 56.1376 8.53883 60.4311 12.4098 61.8362C16.2807 63.2413 20.5245 61.2215 22.3064 57.5089C28.0523 45.5373 36.8931 35.2603 47.9706 27.7777C61.1152 18.8989 76.7339 14.4109 92.5868 14.9574C108.44 15.5038 123.712 21.0567 136.214 30.8195C148.716 40.5823 157.805 54.0536 162.178 69.3013C166.551 84.549 165.982 100.79 160.554 115.694C155.126 130.599 145.117 143.402 131.963 152.267C118.81 161.132 103.186 165.603 87.3338 165.04C73.9743 164.565 61.0307 160.535 49.8135 153.428C46.3349 151.224 41.6657 151.76 39.1277 155.003Z" stroke="#03C4A1" stroke-width="30" mask="url(#path-2-inside-1_7_24)"/>
<path d="M80.2407 84.9507C80.2407 85.8133 80.0576 86.5783 79.6914 87.2456C79.3252 87.9129 78.8206 88.446 78.1777 88.8447C78.9102 89.2598 79.488 89.8335 79.9111 90.5659C80.3343 91.2902 80.5459 92.1447 80.5459 93.1294C80.5459 94.7082 80.0902 95.9574 79.1787 96.877C78.2673 97.7884 77.0262 98.2441 75.4556 98.2441C73.8849 98.2441 72.6357 97.7884 71.708 96.877C70.7803 95.9574 70.3164 94.7082 70.3164 93.1294C70.3164 92.1447 70.528 91.2861 70.9512 90.5537C71.3743 89.8213 71.9562 89.2516 72.6968 88.8447C72.0457 88.446 71.5371 87.9129 71.1709 87.2456C70.8047 86.5783 70.6216 85.8133 70.6216 84.9507C70.6216 83.3963 71.057 82.1797 71.9277 81.3008C72.7985 80.4219 73.9663 79.9824 75.4312 79.9824C76.9123 79.9824 78.0841 80.4259 78.9468 81.313C79.8094 82.2 80.2407 83.4126 80.2407 84.9507ZM75.4556 95.3755C75.9764 95.3755 76.3752 95.1558 76.6519 94.7163C76.9367 94.2687 77.0791 93.6502 77.0791 92.8608C77.0791 92.0715 76.9326 91.453 76.6396 91.0054C76.3467 90.5578 75.9438 90.334 75.4312 90.334C74.9185 90.334 74.5116 90.5578 74.2104 91.0054C73.9175 91.453 73.771 92.0715 73.771 92.8608C73.771 93.6502 73.9175 94.2687 74.2104 94.7163C74.5116 95.1558 74.9266 95.3755 75.4556 95.3755ZM76.7983 85.1338C76.7983 84.4421 76.6844 83.8887 76.4565 83.4736C76.2368 83.0586 75.895 82.8511 75.4312 82.8511C74.9917 82.8511 74.658 83.0545 74.4302 83.4614C74.2023 83.8602 74.0884 84.4176 74.0884 85.1338C74.0884 85.8337 74.2023 86.3993 74.4302 86.8306C74.658 87.2537 74.9998 87.4653 75.4556 87.4653C75.9113 87.4653 76.249 87.2537 76.4688 86.8306C76.6885 86.3993 76.7983 85.8337 76.7983 85.1338ZM93.5034 90.6514C93.5034 93.109 93.0558 94.9889 92.1606 96.291C91.2736 97.5931 90.0041 98.2441 88.3521 98.2441C86.7163 98.2441 85.4508 97.6134 84.5557 96.3521C83.6686 95.0825 83.2088 93.2677 83.1763 90.9077V87.5508C83.1763 85.1012 83.6198 83.2295 84.5068 81.9355C85.3939 80.6335 86.6675 79.9824 88.3276 79.9824C89.9878 79.9824 91.2614 80.6253 92.1484 81.9111C93.0355 83.1969 93.4871 85.0321 93.5034 87.4165V90.6514ZM90.0366 87.0503C90.0366 85.6506 89.8983 84.6007 89.6216 83.9009C89.3449 83.201 88.9136 82.8511 88.3276 82.8511C87.229 82.8511 86.6593 84.1328 86.6187 86.6963V91.1274C86.6187 92.5597 86.757 93.6258 87.0337 94.3257C87.3185 95.0256 87.758 95.3755 88.3521 95.3755C88.9136 95.3755 89.3286 95.05 89.5972 94.3989C89.8739 93.7397 90.0203 92.7347 90.0366 91.3838V87.0503ZM96.0972 83.6445C96.0972 82.5622 96.3942 81.6792 96.9883 80.9956C97.5905 80.312 98.4002 79.9702 99.4175 79.9702C100.435 79.9702 101.244 80.3079 101.847 80.9834C102.457 81.6507 102.762 82.554 102.762 83.6934V84.5845C102.762 85.6831 102.461 86.5661 101.859 87.2334C101.257 87.9007 100.451 88.2344 99.4419 88.2344C98.4409 88.2344 97.6312 87.9007 97.0127 87.2334C96.4023 86.5661 96.0972 85.6587 96.0972 84.5112V83.6445ZM98.3433 84.5845C98.3433 85.0728 98.445 85.4634 98.6484 85.7563C98.86 86.0412 99.1245 86.1836 99.4419 86.1836C99.7674 86.1836 100.024 86.033 100.211 85.7319C100.406 85.4308 100.504 85.0361 100.504 84.5479V83.6445C100.504 83.1725 100.406 82.786 100.211 82.4849C100.016 82.1756 99.7511 82.021 99.4175 82.021C99.092 82.021 98.8315 82.1756 98.6362 82.4849C98.4409 82.786 98.3433 83.1847 98.3433 83.6812V84.5845ZM103.104 93.6421C103.104 92.5435 103.409 91.6605 104.02 90.9932C104.63 90.3177 105.436 89.98 106.437 89.98C107.446 89.98 108.255 90.3136 108.866 90.981C109.476 91.6401 109.781 92.5475 109.781 93.7031V94.5942C109.781 95.6847 109.484 96.5677 108.89 97.2432C108.296 97.9105 107.486 98.2441 106.461 98.2441C105.427 98.2441 104.61 97.9064 104.007 97.231C103.405 96.5555 103.104 95.6603 103.104 94.5454V93.6421ZM105.362 94.5942C105.362 95.05 105.468 95.4325 105.68 95.7417C105.899 96.0509 106.16 96.2056 106.461 96.2056C107.136 96.2056 107.49 95.7214 107.523 94.7529V93.6421C107.523 93.1619 107.421 92.7754 107.218 92.4824C107.022 92.1813 106.762 92.0308 106.437 92.0308C105.72 92.0308 105.362 92.6533 105.362 93.8984V94.5942ZM100.064 96.6694L98.4287 95.7417L105.716 81.8501L107.364 82.7778L100.064 96.6694Z" fill="white"/>
</svg>
