<svg width="180" height="180" viewBox="0 0 180 180" fill="none" xmlns="http://www.w3.org/2000/svg">
<circle cx="90" cy="90" r="82.5" stroke="white" stroke-width="15"/>
<mask id="path-2-inside-1_7_30" fill="white">
<path d="M39.1277 155.003C36.5897 158.246 37.1459 162.962 40.5878 165.223C55.0341 174.712 71.9585 179.872 89.3475 179.998C109.23 180.142 128.6 173.698 144.434 161.672C160.268 149.647 171.674 132.716 176.871 113.525C181.416 96.7397 180.989 79.0516 175.724 62.5884C174.47 58.666 170.077 56.8648 166.272 58.4393C162.467 60.0139 160.697 64.368 161.886 68.3105C165.929 81.7085 166.161 96.0231 162.477 109.627C158.141 125.638 148.625 139.763 135.415 149.796C122.204 159.829 106.043 165.205 89.4556 165.085C75.3625 164.983 61.6352 160.918 49.8136 153.428C46.335 151.224 41.6657 151.76 39.1277 155.003Z"/>
</mask>
<path d="M39.1277 155.003C36.5897 158.246 37.1459 162.962 40.5878 165.223C55.0341 174.712 71.9585 179.872 89.3475 179.998C109.23 180.142 128.6 173.698 144.434 161.672C160.268 149.647 171.674 132.716 176.871 113.525C181.416 96.7397 180.989 79.0516 175.724 62.5884C174.47 58.666 170.077 56.8648 166.272 58.4393C162.467 60.0139 160.697 64.368 161.886 68.3105C165.929 81.7085 166.161 96.0231 162.477 109.627C158.141 125.638 148.625 139.763 135.415 149.796C122.204 159.829 106.043 165.205 89.4556 165.085C75.3625 164.983 61.6352 160.918 49.8136 153.428C46.335 151.224 41.6657 151.76 39.1277 155.003Z" stroke="#03C4A1" stroke-width="30" mask="url(#path-2-inside-1_7_30)"/>
<path d="M79.3862 91.2861H80.8999V94.1548H79.3862V98H75.9316V94.1548H70.0479L69.8892 91.9209L75.9194 80.2266H79.3862V91.2861ZM73.2461 91.2861H75.9316V85.3413L75.8584 85.4756L73.2461 91.2861ZM93.5034 90.6514C93.5034 93.109 93.0558 94.9889 92.1606 96.291C91.2736 97.5931 90.0041 98.2441 88.3521 98.2441C86.7163 98.2441 85.4508 97.6134 84.5557 96.3521C83.6686 95.0825 83.2088 93.2677 83.1763 90.9077V87.5508C83.1763 85.1012 83.6198 83.2295 84.5068 81.9355C85.3939 80.6335 86.6675 79.9824 88.3276 79.9824C89.9878 79.9824 91.2614 80.6253 92.1484 81.9111C93.0355 83.1969 93.4871 85.0321 93.5034 87.4165V90.6514ZM90.0366 87.0503C90.0366 85.6506 89.8983 84.6007 89.6216 83.9009C89.3449 83.201 88.9136 82.8511 88.3276 82.8511C87.229 82.8511 86.6593 84.1328 86.6187 86.6963V91.1274C86.6187 92.5597 86.757 93.6258 87.0337 94.3257C87.3185 95.0256 87.758 95.3755 88.3521 95.3755C88.9136 95.3755 89.3286 95.05 89.5972 94.3989C89.8739 93.7397 90.0203 92.7347 90.0366 91.3838V87.0503ZM96.0972 83.6445C96.0972 82.5622 96.3942 81.6792 96.9883 80.9956C97.5905 80.312 98.4002 79.9702 99.4175 79.9702C100.435 79.9702 101.244 80.3079 101.847 80.9834C102.457 81.6507 102.762 82.554 102.762 83.6934V84.5845C102.762 85.6831 102.461 86.5661 101.859 87.2334C101.257 87.9007 100.451 88.2344 99.4419 88.2344C98.4409 88.2344 97.6312 87.9007 97.0127 87.2334C96.4023 86.5661 96.0972 85.6587 96.0972 84.5112V83.6445ZM98.3433 84.5845C98.3433 85.0728 98.445 85.4634 98.6484 85.7563C98.86 86.0412 99.1245 86.1836 99.4419 86.1836C99.7674 86.1836 100.024 86.033 100.211 85.7319C100.406 85.4308 100.504 85.0361 100.504 84.5479V83.6445C100.504 83.1725 100.406 82.786 100.211 82.4849C100.016 82.1756 99.7511 82.021 99.4175 82.021C99.092 82.021 98.8315 82.1756 98.6362 82.4849C98.4409 82.786 98.3433 83.1847 98.3433 83.6812V84.5845ZM103.104 93.6421C103.104 92.5435 103.409 91.6605 104.02 90.9932C104.63 90.3177 105.436 89.98 106.437 89.98C107.446 89.98 108.255 90.3136 108.866 90.981C109.476 91.6401 109.781 92.5475 109.781 93.7031V94.5942C109.781 95.6847 109.484 96.5677 108.89 97.2432C108.296 97.9105 107.486 98.2441 106.461 98.2441C105.427 98.2441 104.61 97.9064 104.007 97.231C103.405 96.5555 103.104 95.6603 103.104 94.5454V93.6421ZM105.362 94.5942C105.362 95.05 105.468 95.4325 105.68 95.7417C105.899 96.0509 106.16 96.2056 106.461 96.2056C107.136 96.2056 107.49 95.7214 107.523 94.7529V93.6421C107.523 93.1619 107.421 92.7754 107.218 92.4824C107.022 92.1813 106.762 92.0308 106.437 92.0308C105.72 92.0308 105.362 92.6533 105.362 93.8984V94.5942ZM100.064 96.6694L98.4287 95.7417L105.716 81.8501L107.364 82.7778L100.064 96.6694Z" fill="white"/>
</svg>
