<svg width="180" height="180" viewBox="0 0 180 180" fill="none" xmlns="http://www.w3.org/2000/svg">
<circle cx="90" cy="90" r="82.5" stroke="white" stroke-width="15"/>
<mask id="path-2-inside-1_7_36" fill="white">
<path d="M8.20297 101.077C4.12216 101.629 1.23096 105.395 2.11936 109.417C5.19981 123.359 11.5629 136.406 20.7234 147.452C31.4747 160.416 45.6481 170.104 61.6318 175.412C77.6155 180.721 94.7682 181.438 111.139 177.482C127.51 173.526 142.443 165.056 154.239 153.035C166.035 141.013 174.221 125.923 177.867 109.48C181.512 93.037 180.47 75.901 174.86 60.0206C169.25 44.1402 159.296 30.1527 146.131 19.6486C134.914 10.6988 121.748 4.58373 107.75 1.76767C103.713 0.955518 100.002 3.91747 99.5268 8.00801C99.0515 12.0986 101.995 15.7627 106.018 16.6412C117.246 19.0927 127.795 24.097 136.83 31.3057C147.814 40.0693 156.118 51.7391 160.799 64.9881C165.48 78.2372 166.349 92.5338 163.307 106.252C160.266 119.971 153.436 132.56 143.595 142.59C133.753 152.619 121.295 159.686 107.637 162.987C93.9781 166.287 79.6676 165.689 66.3324 161.26C52.9971 156.831 41.1723 148.748 32.2024 137.932C24.8241 129.036 19.621 118.583 16.9575 107.403C16.003 103.398 12.2838 100.524 8.20297 101.077Z"/>
</mask>
<path d="M8.20297 101.077C4.12216 101.629 1.23096 105.395 2.11936 109.417C5.19981 123.359 11.5629 136.406 20.7234 147.452C31.4747 160.416 45.6481 170.104 61.6318 175.412C77.6155 180.721 94.7682 181.438 111.139 177.482C127.51 173.526 142.443 165.056 154.239 153.035C166.035 141.013 174.221 125.923 177.867 109.48C181.512 93.037 180.47 75.901 174.86 60.0206C169.25 44.1402 159.296 30.1527 146.131 19.6486C134.914 10.6988 121.748 4.58373 107.75 1.76767C103.713 0.955518 100.002 3.91747 99.5268 8.00801C99.0515 12.0986 101.995 15.7627 106.018 16.6412C117.246 19.0927 127.795 24.097 136.83 31.3057C147.814 40.0693 156.118 51.7391 160.799 64.9881C165.48 78.2372 166.349 92.5338 163.307 106.252C160.266 119.971 153.436 132.56 143.595 142.59C133.753 152.619 121.295 159.686 107.637 162.987C93.9781 166.287 79.6676 165.689 66.3324 161.26C52.9971 156.831 41.1723 148.748 32.2024 137.932C24.8241 129.036 19.621 118.583 16.9575 107.403C16.003 103.398 12.2838 100.524 8.20297 101.077Z" stroke="#03C4A1" stroke-width="30" mask="url(#path-2-inside-1_7_36)"/>
<path d="M80.7046 82.2163L75.0894 98H71.4395L77.0791 83.0952H69.9502V80.2266H80.7046V82.2163ZM83.5303 89.2598L84.4092 80.2266H93.0151V83.1807H87.2412L86.9238 86.9893C87.5911 86.5417 88.2788 86.3179 88.9868 86.3179C90.4517 86.3179 91.5788 86.8387 92.3682 87.8804C93.1657 88.922 93.5645 90.395 93.5645 92.2993C93.5645 94.0815 93.0924 95.5179 92.1484 96.6084C91.2044 97.6989 89.943 98.2441 88.3643 98.2441C87.4284 98.2441 86.5617 98.0244 85.7642 97.585C84.9666 97.1374 84.3359 96.5189 83.8721 95.7295C83.4163 94.9401 83.1844 94.0449 83.1763 93.0439H86.5942C86.6512 93.7845 86.8343 94.3582 87.1436 94.7651C87.4528 95.172 87.8516 95.3755 88.3398 95.3755C88.9095 95.3755 89.349 95.1029 89.6582 94.5576C89.9674 94.0042 90.1221 93.1823 90.1221 92.0918C90.1221 91.0664 89.9349 90.2933 89.5605 89.7725C89.1943 89.2516 88.6776 88.9912 88.0103 88.9912C87.3592 88.9912 86.8547 89.215 86.4966 89.6626L86.2769 89.9678L83.5303 89.2598ZM96.0972 83.6445C96.0972 82.5622 96.3942 81.6792 96.9883 80.9956C97.5905 80.312 98.4002 79.9702 99.4175 79.9702C100.435 79.9702 101.244 80.3079 101.847 80.9834C102.457 81.6507 102.762 82.554 102.762 83.6934V84.5845C102.762 85.6831 102.461 86.5661 101.859 87.2334C101.257 87.9007 100.451 88.2344 99.4419 88.2344C98.4409 88.2344 97.6312 87.9007 97.0127 87.2334C96.4023 86.5661 96.0972 85.6587 96.0972 84.5112V83.6445ZM98.3433 84.5845C98.3433 85.0728 98.445 85.4634 98.6484 85.7563C98.86 86.0412 99.1245 86.1836 99.4419 86.1836C99.7674 86.1836 100.024 86.033 100.211 85.7319C100.406 85.4308 100.504 85.0361 100.504 84.5479V83.6445C100.504 83.1725 100.406 82.786 100.211 82.4849C100.016 82.1756 99.7511 82.021 99.4175 82.021C99.092 82.021 98.8315 82.1756 98.6362 82.4849C98.4409 82.786 98.3433 83.1847 98.3433 83.6812V84.5845ZM103.104 93.6421C103.104 92.5435 103.409 91.6605 104.02 90.9932C104.63 90.3177 105.436 89.98 106.437 89.98C107.446 89.98 108.255 90.3136 108.866 90.981C109.476 91.6401 109.781 92.5475 109.781 93.7031V94.5942C109.781 95.6847 109.484 96.5677 108.89 97.2432C108.296 97.9105 107.486 98.2441 106.461 98.2441C105.427 98.2441 104.61 97.9064 104.007 97.231C103.405 96.5555 103.104 95.6603 103.104 94.5454V93.6421ZM105.362 94.5942C105.362 95.05 105.468 95.4325 105.68 95.7417C105.899 96.0509 106.16 96.2056 106.461 96.2056C107.136 96.2056 107.49 95.7214 107.523 94.7529V93.6421C107.523 93.1619 107.421 92.7754 107.218 92.4824C107.022 92.1813 106.762 92.0308 106.437 92.0308C105.72 92.0308 105.362 92.6533 105.362 93.8984V94.5942ZM100.064 96.6694L98.4287 95.7417L105.716 81.8501L107.364 82.7778L100.064 96.6694Z" fill="white"/>
</svg>
