<svg width="180" height="180" viewBox="0 0 180 180" fill="none" xmlns="http://www.w3.org/2000/svg">
<circle cx="90" cy="90" r="82.5" stroke="white" stroke-width="15"/>
<mask id="path-2-inside-1_7_42" fill="white">
<path d="M39.1277 155.003C36.5897 158.246 37.1459 162.962 40.5878 165.223C49.4283 171.03 59.2404 175.244 69.5797 177.653C82.3444 180.627 95.6046 180.776 108.433 178.092C121.262 175.408 133.35 169.954 143.851 162.111C154.353 154.269 163.014 144.228 169.231 132.69C175.448 121.151 179.07 108.394 179.843 95.3106C180.617 82.2269 178.523 69.1321 173.709 56.9417C168.895 44.7514 161.476 33.7596 151.971 24.7348C144.273 17.4248 135.356 11.5483 125.644 7.3592C121.863 5.72827 117.619 7.85722 116.307 11.7605C114.994 15.6639 117.114 19.8583 120.868 21.5513C128.533 25.0079 135.58 29.7351 141.703 35.5491C149.632 43.0785 155.822 52.249 159.838 62.4194C163.855 72.5899 165.602 83.5149 164.956 94.4306C164.311 105.346 161.29 115.99 156.103 125.616C150.916 135.242 143.689 143.62 134.928 150.163C126.167 156.706 116.082 161.256 105.379 163.495C94.6759 165.735 83.6129 165.61 72.9633 163.129C64.7399 161.213 56.9162 157.928 49.8135 153.428C46.3349 151.224 41.6657 151.76 39.1277 155.003Z"/>
</mask>
<path d="M39.1277 155.003C36.5897 158.246 37.1459 162.962 40.5878 165.223C49.4283 171.03 59.2404 175.244 69.5797 177.653C82.3444 180.627 95.6046 180.776 108.433 178.092C121.262 175.408 133.35 169.954 143.851 162.111C154.353 154.269 163.014 144.228 169.231 132.69C175.448 121.151 179.07 108.394 179.843 95.3106C180.617 82.2269 178.523 69.1321 173.709 56.9417C168.895 44.7514 161.476 33.7596 151.971 24.7348C144.273 17.4248 135.356 11.5483 125.644 7.3592C121.863 5.72827 117.619 7.85722 116.307 11.7605C114.994 15.6639 117.114 19.8583 120.868 21.5513C128.533 25.0079 135.58 29.7351 141.703 35.5491C149.632 43.0785 155.822 52.249 159.838 62.4194C163.855 72.5899 165.602 83.5149 164.956 94.4306C164.311 105.346 161.29 115.99 156.103 125.616C150.916 135.242 143.689 143.62 134.928 150.163C126.167 156.706 116.082 161.256 105.379 163.495C94.6759 165.735 83.6129 165.61 72.9633 163.129C64.7399 161.213 56.9162 157.928 49.8135 153.428C46.3349 151.224 41.6657 151.76 39.1277 155.003Z" stroke="#03C4A1" stroke-width="30" mask="url(#path-2-inside-1_7_42)"/>
<path d="M78.5195 80.0435V82.9731H78.3242C77.0303 82.9813 76.0008 83.3719 75.2358 84.145C74.479 84.91 74.0192 85.9842 73.8564 87.3677C74.597 86.5213 75.5247 86.0981 76.6396 86.0981C77.9255 86.0981 78.9508 86.6475 79.7158 87.7461C80.4889 88.8447 80.8755 90.3096 80.8755 92.1406C80.8755 93.3044 80.6558 94.3542 80.2163 95.29C79.7769 96.2259 79.1584 96.9543 78.3608 97.4751C77.5715 97.9878 76.6763 98.2441 75.6753 98.2441C74.064 98.2441 72.77 97.5972 71.7935 96.3032C70.825 95.0093 70.3408 93.2677 70.3408 91.0786V89.7969C70.3408 87.8356 70.646 86.1185 71.2563 84.6455C71.8748 83.1725 72.7619 82.0413 73.9175 81.252C75.0812 80.4544 76.4362 80.0516 77.9824 80.0435H78.5195ZM75.5532 88.9546C75.1138 88.9546 74.7435 89.0929 74.4424 89.3696C74.1494 89.6463 73.9297 89.9881 73.7832 90.395V91.6401C73.7832 92.8934 73.95 93.8293 74.2837 94.4478C74.6174 95.0662 75.0568 95.3755 75.6021 95.3755C76.1554 95.3755 76.599 95.0785 76.9326 94.4844C77.2663 93.8822 77.4331 93.1131 77.4331 92.1772C77.4331 91.2251 77.2581 90.452 76.9082 89.8579C76.5664 89.2557 76.1147 88.9546 75.5532 88.9546ZM93.1372 84.9507C93.1372 85.8133 92.9541 86.5783 92.5879 87.2456C92.2217 87.9129 91.7171 88.446 91.0742 88.8447C91.8066 89.2598 92.3844 89.8335 92.8076 90.5659C93.2308 91.2902 93.4424 92.1447 93.4424 93.1294C93.4424 94.7082 92.9867 95.9574 92.0752 96.877C91.1637 97.7884 89.9227 98.2441 88.3521 98.2441C86.7814 98.2441 85.5322 97.7884 84.6045 96.877C83.6768 95.9574 83.2129 94.7082 83.2129 93.1294C83.2129 92.1447 83.4245 91.2861 83.8477 90.5537C84.2708 89.8213 84.8527 89.2516 85.5933 88.8447C84.9422 88.446 84.4336 87.9129 84.0674 87.2456C83.7012 86.5783 83.5181 85.8133 83.5181 84.9507C83.5181 83.3963 83.9535 82.1797 84.8242 81.3008C85.695 80.4219 86.8628 79.9824 88.3276 79.9824C89.8088 79.9824 90.9806 80.4259 91.8433 81.313C92.7059 82.2 93.1372 83.4126 93.1372 84.9507ZM88.3521 95.3755C88.8729 95.3755 89.2716 95.1558 89.5483 94.7163C89.8332 94.2687 89.9756 93.6502 89.9756 92.8608C89.9756 92.0715 89.8291 91.453 89.5361 91.0054C89.2432 90.5578 88.8403 90.334 88.3276 90.334C87.8149 90.334 87.408 90.5578 87.1069 91.0054C86.814 91.453 86.6675 92.0715 86.6675 92.8608C86.6675 93.6502 86.814 94.2687 87.1069 94.7163C87.408 95.1558 87.8231 95.3755 88.3521 95.3755ZM89.6948 85.1338C89.6948 84.4421 89.5809 83.8887 89.353 83.4736C89.1333 83.0586 88.7915 82.8511 88.3276 82.8511C87.8882 82.8511 87.5545 83.0545 87.3267 83.4614C87.0988 83.8602 86.9849 84.4176 86.9849 85.1338C86.9849 85.8337 87.0988 86.3993 87.3267 86.8306C87.5545 87.2537 87.8963 87.4653 88.3521 87.4653C88.8078 87.4653 89.1455 87.2537 89.3652 86.8306C89.585 86.3993 89.6948 85.8337 89.6948 85.1338ZM96.0972 83.6445C96.0972 82.5622 96.3942 81.6792 96.9883 80.9956C97.5905 80.312 98.4002 79.9702 99.4175 79.9702C100.435 79.9702 101.244 80.3079 101.847 80.9834C102.457 81.6507 102.762 82.554 102.762 83.6934V84.5845C102.762 85.6831 102.461 86.5661 101.859 87.2334C101.257 87.9007 100.451 88.2344 99.4419 88.2344C98.4409 88.2344 97.6312 87.9007 97.0127 87.2334C96.4023 86.5661 96.0972 85.6587 96.0972 84.5112V83.6445ZM98.3433 84.5845C98.3433 85.0728 98.445 85.4634 98.6484 85.7563C98.86 86.0412 99.1245 86.1836 99.4419 86.1836C99.7674 86.1836 100.024 86.033 100.211 85.7319C100.406 85.4308 100.504 85.0361 100.504 84.5479V83.6445C100.504 83.1725 100.406 82.786 100.211 82.4849C100.016 82.1756 99.7511 82.021 99.4175 82.021C99.092 82.021 98.8315 82.1756 98.6362 82.4849C98.4409 82.786 98.3433 83.1847 98.3433 83.6812V84.5845ZM103.104 93.6421C103.104 92.5435 103.409 91.6605 104.02 90.9932C104.63 90.3177 105.436 89.98 106.437 89.98C107.446 89.98 108.255 90.3136 108.866 90.981C109.476 91.6401 109.781 92.5475 109.781 93.7031V94.5942C109.781 95.6847 109.484 96.5677 108.89 97.2432C108.296 97.9105 107.486 98.2441 106.461 98.2441C105.427 98.2441 104.61 97.9064 104.007 97.231C103.405 96.5555 103.104 95.6603 103.104 94.5454V93.6421ZM105.362 94.5942C105.362 95.05 105.468 95.4325 105.68 95.7417C105.899 96.0509 106.16 96.2056 106.461 96.2056C107.136 96.2056 107.49 95.7214 107.523 94.7529V93.6421C107.523 93.1619 107.421 92.7754 107.218 92.4824C107.022 92.1813 106.762 92.0308 106.437 92.0308C105.72 92.0308 105.362 92.6533 105.362 93.8984V94.5942ZM100.064 96.6694L98.4287 95.7417L105.716 81.8501L107.364 82.7778L100.064 96.6694Z" fill="white"/>
</svg>
