<svg width="41" height="40" viewBox="0 0 41 40" fill="none" xmlns="http://www.w3.org/2000/svg">
<path d="M0 31.3871V34.634C0 37.4171 6.87374 39.5818 15.346 39.5818C23.8182 39.5818 30.692 37.4171 30.692 34.634V31.3871C27.3351 33.629 21.3405 34.634 15.346 34.634C9.27156 34.634 3.27701 33.629 0 31.3871ZM25.5766 9.89544C34.0489 9.89544 40.9226 7.73081 40.9226 4.94772C40.9226 2.24194 34.0489 0 25.5766 0C17.1044 0 10.2307 2.24194 10.2307 4.94772C10.2307 7.73081 17.1044 9.89544 25.5766 9.89544ZM0 23.2698V27.2125C0 29.9956 6.87374 32.1602 15.346 32.1602C23.8182 32.1602 30.692 29.9956 30.692 27.2125V23.2698C27.3351 25.8982 21.3405 27.2125 15.346 27.2125C9.27156 27.2125 3.27701 25.8982 0 23.2698ZM33.2496 24.1202C37.8055 23.2698 40.9226 21.6463 40.9226 19.7909V16.544C39.0044 17.7809 36.2868 18.6313 33.2496 19.1724V24.1202ZM15.346 12.3693C6.87374 12.3693 0 15.1524 0 18.554C0 22.0328 6.87374 24.7386 15.346 24.7386C23.8182 24.7386 30.692 22.0328 30.692 18.554C30.692 15.1524 23.8182 12.3693 15.346 12.3693ZM32.85 16.7759C37.6456 15.9255 40.9226 14.302 40.9226 12.3693V9.12238C38.0453 11.0551 33.1697 12.0601 28.0543 12.3693C30.3723 13.4516 32.1307 14.9205 32.85 16.7759Z" fill="#03C4A1"/>
</svg>
